<svg id="Layer_1" data-name="Layer 1" xmlns="http://www.w3.org/2000/svg" viewBox="0 0 319.66 314.55"><defs><style>.cls-1{fill:#58595b;}.cls-2{fill:#fff;}</style></defs><title>upload</title><path class="cls-1" d="M437.89,339.28V525.83h-126v3.7a8,8,0,0,1-8,8h-30a8,8,0,0,1-8-8v-3.7H140.7V339.28a8.51,8.51,0,0,1,8.51-8.51h51.15v11.57H151.94V513.91H426V342.34H383.17V330.77h46.21A8.51,8.51,0,0,1,437.89,339.28Z" transform="translate(-129.38 -244.98)"/><path class="cls-1" d="M345.55,342.26H375V354.6h39.74V502.34H163.85V354.6H209.3V342.26h28.59v-8.43s-28.21,0-28.55-23.36c-.36-24.38,28.55-24.38,28.55-24.38s7.38.13,7.49-9.11c.17-14.77,15.16-32,46.3-32,30,0,46.17,12.64,46.29,32,.06,9.12,7.58,9.11,7.58,9.11s28.15,0,28.55,24.38c.39,23.36-28.55,23.36-28.55,23.36" transform="translate(-129.38 -244.98)"/><path class="cls-1" d="M449,536.81v11.36a11.35,11.35,0,0,1-11.36,11.36H140.75a11.37,11.37,0,0,1-11.37-11.36V536.81H256.16a9.49,9.49,0,0,0-.39,2.68,9.32,9.32,0,0,0,9.32,9.32h47.48a9.32,9.32,0,0,0,9.32-9.32,9.49,9.49,0,0,0-.39-2.68Z" transform="translate(-129.38 -244.98)"/><polygon class="cls-2" points="141.45 57.93 130.44 57.93 130.47 117.99 117.51 104.94 108.51 113.84 135.96 140.97 163.44 114 154.47 104.94 141.51 117.96 141.45 57.93"/><polygon class="cls-2" points="183.24 133.18 194.25 133.18 194.21 73.12 207.17 86.17 216.17 77.27 188.72 50.14 161.25 77.11 170.21 86.17 183.17 73.15 183.24 133.18"/></svg>